<?xml version="1.0" encoding="UTF-8"?>
<svg xmlns="http://www.w3.org/2000/svg" xmlns:xlink="http://www.w3.org/1999/xlink" width="24px" height="24px" viewBox="0 0 24 24" version="1.1">
<g id="surface1">
<path style=" stroke:none;fill-rule:nonzero;fill:rgb(0%,0%,0%);fill-opacity:1;" d="M 10.316406 1.144531 C 6.542969 1.730469 3.398438 4.179688 1.875 7.738281 C 0.542969 10.847656 0.792969 14.660156 2.523438 17.585938 C 4.660156 21.207031 8.71875 23.316406 12.839844 22.972656 C 14.378906 22.839844 15.46875 22.542969 16.792969 21.902344 C 19.160156 20.75 20.945312 18.703125 21.855469 16.109375 C 21.972656 15.773438 22.160156 15.101562 22.253906 14.628906 C 22.421875 13.839844 22.441406 13.613281 22.449219 12.277344 C 22.449219 11.28125 22.421875 10.660156 22.359375 10.394531 L 22.269531 10 L 12 10 L 12 14.277344 L 17.925781 14.277344 L 17.820312 14.632812 C 17.539062 15.605469 16.9375 16.550781 16.21875 17.144531 C 15.667969 17.601562 14.730469 18.074219 13.964844 18.277344 C 13.171875 18.488281 11.550781 18.542969 10.757812 18.386719 C 8.324219 17.890625 6.484375 16.1875 5.75 13.757812 C 5.578125 13.191406 5.558594 13.042969 5.566406 12.035156 C 5.566406 10.757812 5.675781 10.226562 6.136719 9.25 C 6.980469 7.496094 8.511719 6.21875 10.378906 5.710938 C 11.179688 5.496094 12.828125 5.496094 13.621094 5.710938 C 14.261719 5.882812 15.277344 6.367188 15.730469 6.710938 L 16.046875 6.953125 L 17.65625 5.34375 L 19.253906 3.738281 L 18.890625 3.449219 C 17.433594 2.289062 15.640625 1.484375 13.835938 1.171875 C 12.867188 1.007812 11.269531 0.992188 10.316406 1.144531 Z M 10.316406 1.144531 "/>
</g>
</svg>
