<?xml version="1.0" encoding="UTF-8"?>
<svg xmlns="http://www.w3.org/2000/svg" xmlns:xlink="http://www.w3.org/1999/xlink" width="24px" height="24px" viewBox="0 0 24 24" version="1.1">
<g id="surface1">
<path style=" stroke:none;fill-rule:nonzero;fill:rgb(0%,0%,0%);fill-opacity:1;" d="M 11.359375 0.65625 C 8.71875 0.792969 6.261719 1.792969 4.285156 3.53125 C 4.019531 3.765625 3.480469 4.308594 3.261719 4.558594 C 2.394531 5.554688 1.746094 6.609375 1.265625 7.804688 C 0.863281 8.816406 0.628906 9.792969 0.507812 10.945312 C 0.464844 11.386719 0.464844 12.5625 0.507812 13.003906 C 0.683594 14.710938 1.160156 16.199219 1.988281 17.628906 C 3.125 19.589844 4.828125 21.175781 6.875 22.175781 C 8.164062 22.808594 9.382812 23.148438 10.882812 23.304688 C 11.128906 23.332031 11.34375 23.339844 11.960938 23.339844 C 12.777344 23.335938 13.042969 23.320312 13.6875 23.222656 C 14.84375 23.046875 16.027344 22.671875 17.074219 22.148438 C 20.425781 20.472656 22.757812 17.28125 23.296875 13.625 C 23.550781 11.890625 23.398438 10.125 22.851562 8.457031 C 21.910156 5.59375 19.808594 3.1875 17.066406 1.832031 C 15.316406 0.96875 13.316406 0.558594 11.359375 0.65625 Z M 12.796875 2.457031 C 14.773438 2.632812 16.613281 3.382812 18.15625 4.648438 C 18.445312 4.886719 19.117188 5.550781 19.359375 5.835938 C 20.65625 7.375 21.40625 9.1875 21.589844 11.203125 C 21.617188 11.523438 21.617188 12.425781 21.589844 12.746094 C 21.410156 14.773438 20.632812 16.605469 19.285156 18.183594 C 19.042969 18.46875 18.441406 19.066406 18.15625 19.308594 C 17.242188 20.078125 16.183594 20.703125 15.089844 21.121094 C 14.980469 21.160156 14.875 21.203125 14.851562 21.207031 L 14.8125 21.21875 L 14.8125 20.207031 C 14.8125 19.402344 14.804688 19.15625 14.785156 18.988281 C 14.722656 18.515625 14.570312 18.152344 14.308594 17.824219 C 14.210938 17.699219 13.945312 17.457031 13.910156 17.457031 C 13.902344 17.457031 13.894531 17.449219 13.894531 17.441406 C 13.894531 17.4375 13.988281 17.417969 14.105469 17.40625 C 14.222656 17.394531 14.457031 17.359375 14.625 17.332031 C 16.367188 17.046875 17.507812 16.40625 18.230469 15.308594 C 18.714844 14.578125 18.980469 13.632812 19.035156 12.4375 C 19.066406 11.792969 19.015625 11.285156 18.875 10.78125 C 18.722656 10.253906 18.425781 9.695312 18.058594 9.269531 C 17.980469 9.179688 17.925781 9.097656 17.929688 9.082031 C 17.933594 9.070312 17.957031 8.984375 17.980469 8.898438 C 18.179688 8.238281 18.183594 7.550781 18 6.820312 C 17.933594 6.566406 17.820312 6.238281 17.78125 6.214844 C 17.761719 6.199219 17.683594 6.191406 17.539062 6.191406 C 16.878906 6.191406 15.929688 6.566406 14.917969 7.230469 L 14.765625 7.328125 L 14.550781 7.277344 C 13.683594 7.0625 12.933594 6.972656 11.988281 6.972656 C 11.082031 6.972656 10.324219 7.058594 9.515625 7.257812 L 9.226562 7.328125 L 8.996094 7.179688 C 8.210938 6.675781 7.4375 6.332031 6.839844 6.226562 C 6.609375 6.1875 6.242188 6.179688 6.199219 6.214844 C 6.136719 6.261719 5.960938 6.847656 5.902344 7.210938 C 5.863281 7.453125 5.847656 8.019531 5.875 8.269531 C 5.902344 8.5 5.972656 8.828125 6.03125 8.992188 L 6.070312 9.105469 L 5.984375 9.203125 C 5.792969 9.410156 5.53125 9.789062 5.398438 10.050781 C 5.171875 10.492188 5.011719 11.03125 4.960938 11.546875 C 4.933594 11.8125 4.949219 12.703125 4.984375 13.011719 C 5.128906 14.167969 5.464844 15.019531 6.0625 15.722656 C 6.707031 16.488281 7.703125 17.011719 9.015625 17.269531 C 9.324219 17.332031 9.730469 17.394531 9.972656 17.417969 L 10.105469 17.429688 L 10.019531 17.492188 C 9.90625 17.574219 9.699219 17.777344 9.609375 17.90625 C 9.453125 18.121094 9.316406 18.441406 9.25 18.742188 C 9.195312 18.988281 9.183594 19.199219 9.183594 20.203125 L 9.183594 21.21875 L 9.144531 21.210938 C 8.875 21.128906 8.289062 20.890625 7.882812 20.695312 C 5.847656 19.707031 4.210938 18.105469 3.246094 16.152344 C 3.027344 15.714844 2.898438 15.402344 2.75 14.957031 C 2.398438 13.90625 2.246094 12.910156 2.269531 11.78125 C 2.285156 11.101562 2.339844 10.605469 2.472656 9.988281 C 2.867188 8.171875 3.757812 6.550781 5.085938 5.234375 C 6.445312 3.890625 8.160156 2.976562 10.027344 2.609375 C 10.503906 2.515625 10.878906 2.46875 11.574219 2.421875 C 11.769531 2.410156 12.503906 2.429688 12.796875 2.457031 Z M 12.796875 2.457031 "/>
</g>
</svg>
