<?xml version="1.0" encoding="UTF-8"?>
<svg xmlns="http://www.w3.org/2000/svg" xmlns:xlink="http://www.w3.org/1999/xlink" width="24px" height="24px" viewBox="0 0 24 24" version="1.1">
<g id="surface1">
<path style=" stroke:none;fill-rule:nonzero;fill:rgb(0%,0%,0%);fill-opacity:1;" d="M 13.203125 4.664062 C 11.945312 4.902344 11.113281 5.6875 10.78125 6.9375 C 10.6875 7.292969 10.671875 7.480469 10.65625 8.632812 L 10.632812 9.9375 L 9.519531 9.945312 L 8.414062 9.960938 L 8.398438 11.257812 L 8.390625 12.5625 L 10.640625 12.5625 L 10.648438 15.921875 L 10.664062 19.289062 L 13.335938 19.289062 L 13.351562 15.921875 L 13.359375 12.5625 L 14.484375 12.5625 C 15.351562 12.5625 15.609375 12.546875 15.609375 12.5 C 15.613281 12.472656 15.683594 11.898438 15.769531 11.226562 C 15.851562 10.554688 15.914062 9.992188 15.90625 9.96875 C 15.894531 9.953125 15.320312 9.9375 14.621094 9.9375 L 13.359375 9.9375 L 13.359375 8.976562 C 13.359375 7.832031 13.398438 7.609375 13.632812 7.363281 C 13.898438 7.082031 14.148438 7.03125 15.171875 7.03125 L 16.03125 7.03125 L 16.03125 4.703125 L 15.859375 4.667969 C 15.757812 4.65625 15.207031 4.632812 14.625 4.617188 C 13.808594 4.597656 13.484375 4.613281 13.203125 4.664062 Z M 13.203125 4.664062 "/>
</g>
</svg>
